<?xml version="1.0" encoding="UTF-8" standalone="no"?>
<svg
   xmlns:dc="http://purl.org/dc/elements/1.1/"
   xmlns:cc="http://creativecommons.org/ns#"
   xmlns:rdf="http://www.w3.org/1999/02/22-rdf-syntax-ns#"
   xmlns:svg="http://www.w3.org/2000/svg"
   xmlns="http://www.w3.org/2000/svg"
   xmlns:sodipodi="http://sodipodi.sourceforge.net/DTD/sodipodi-0.dtd"
   xmlns:inkscape="http://www.inkscape.org/namespaces/inkscape"
   version="1.1"
   id="Layer_1"
   x="0px"
   y="0px"
   viewBox="0 0 150 74.999956"
   xml:space="preserve"
   sodipodi:docname="astronomical_twilight_end.svg"
   inkscape:version="0.92.5 (2060ec1f9f, 2020-04-08)"
   width="150"
   height="74.999954"><metadata
     id="metadata4391"><rdf:RDF><cc:Work
         rdf:about=""><dc:format>image/svg+xml</dc:format><dc:type
           rdf:resource="http://purl.org/dc/dcmitype/StillImage" /><dc:title></dc:title></cc:Work></rdf:RDF></metadata><defs
     id="defs4389" /><sodipodi:namedview
     pagecolor="#ffffff"
     bordercolor="#666666"
     borderopacity="1"
     objecttolerance="10"
     gridtolerance="10"
     guidetolerance="10"
     inkscape:pageopacity="0"
     inkscape:pageshadow="2"
     inkscape:window-width="1848"
     inkscape:window-height="1016"
     id="namedview4387"
     showgrid="false"
     inkscape:zoom="3.8411459"
     inkscape:cx="0.12078725"
     inkscape:cy="28.903015"
     inkscape:window-x="72"
     inkscape:window-y="27"
     inkscape:window-maximized="1"
     inkscape:current-layer="Layer_1"
     fit-margin-top="-2.7755576e-17"
     fit-margin-left="0"
     fit-margin-right="0"
     fit-margin-bottom="2.7755576e-17" /><path
     d="m 100.66373,0.00229045 c -4.724824,0.07739 -10.334558,2.07537895 -16.235579,5.39835095 -2.276343,-0.469915 -4.638457,-0.719939 -7.055164,-0.719939 -19.083438,0 -34.547539,15.4640986 -34.547539,34.5475366 0,2.453324 0.255699,4.845762 0.73782,7.164824 -5.876991,10.502909 -7.767905,20.273384 -2.379137,26.144279 3.972919,4.32688 11.58873,2.624531 20.413371,-2.556742 l 0.03099,0.01788 1.287308,-0.804568 C 82.402024,57.67794 99.081148,41.584824 107.66168,22.611236 l -0.031,-0.06198 c 0.13426,-0.256318 0.2628,-0.499524 0.39096,-0.749738 l 0.0179,-0.04291 v 0.006 c 4.00343,-7.787166 5.18165,-14.4326796 1.76409,-18.1736916 -2.32555,-2.544484 -5.46503,-3.64677295 -9.13989,-3.58658395 z m 0.29322,3.57347195 c 2.53227,0.02337 4.6426,0.791456 6.16716,2.460189 2.27024,2.48994 1.35473,7.2560796 -1.62344,13.1269676 C 101.52775,13.609376 95.950513,9.2765834 89.451037,6.8476704 93.74893,4.7467844 97.701173,3.5457124 100.95695,3.5757624 Z M 62.267379,10.423526 h 16.454898 v 21.565989 h 14.73491 L 70.491848,55.86789 70.288024,55.655722 47.532467,31.989515 l 14.734912,-0.006 z m 48.127441,18.625443 -0.006,0.01907 c -9.45323,17.429581 -24.051063,31.709357 -43.280968,43.158199 3.240584,1.006962 6.688854,1.550727 10.265091,1.550727 19.083438,0 34.547537,-15.471392 34.547537,-34.548727 0,-3.545723 -0.53705,-6.963098 -1.5257,-10.17927 z M 45.004337,51.336088 c 2.538762,6.774102 7.133786,12.535188 13.035188,16.526415 -6.48727,3.606752 -11.736104,4.852534 -14.171119,2.203921 -3.710498,-4.046153 -2.702726,-10.912656 1.135931,-18.730336 z"
     id="path4382"
     inkscape:connector-curvature="0"
     style="stroke-width:0.61027944" /><g
     inkscape:groupmode="layer"
     id="layer7"
     inkscape:label="Layer 1"
     transform="translate(-54.096028,-23.947388)" /><g
     inkscape:groupmode="layer"
     id="layer8"
     inkscape:label="Layer 2"
     transform="translate(-54.096028,-23.947388)" /></svg>