<?xml version="1.0" encoding="UTF-8" standalone="no"?>
<svg
   xmlns:dc="http://purl.org/dc/elements/1.1/"
   xmlns:cc="http://creativecommons.org/ns#"
   xmlns:rdf="http://www.w3.org/1999/02/22-rdf-syntax-ns#"
   xmlns:svg="http://www.w3.org/2000/svg"
   xmlns="http://www.w3.org/2000/svg"
   xmlns:sodipodi="http://sodipodi.sourceforge.net/DTD/sodipodi-0.dtd"
   xmlns:inkscape="http://www.inkscape.org/namespaces/inkscape"
   version="1.1"
   id="Layer_1"
   x="0px"
   y="0px"
   viewBox="0 0 121.12 122.88"
   style="enable-background:new 0 0 121.12 122.88"
   xml:space="preserve"
   sodipodi:docname="astronomical_twilight_begin.svg"
   inkscape:version="0.92.5 (2060ec1f9f, 2020-04-08)"><metadata
     id="metadata4391"><rdf:RDF><cc:Work
         rdf:about=""><dc:format>image/svg+xml</dc:format><dc:type
           rdf:resource="http://purl.org/dc/dcmitype/StillImage" /><dc:title></dc:title></cc:Work></rdf:RDF></metadata><defs
     id="defs4389" /><sodipodi:namedview
     pagecolor="#ffffff"
     bordercolor="#666666"
     borderopacity="1"
     objecttolerance="10"
     gridtolerance="10"
     guidetolerance="10"
     inkscape:pageopacity="0"
     inkscape:pageshadow="2"
     inkscape:window-width="1848"
     inkscape:window-height="1016"
     id="namedview4387"
     showgrid="false"
     inkscape:zoom="3.8411459"
     inkscape:cx="54.216816"
     inkscape:cy="52.835664"
     inkscape:window-x="72"
     inkscape:window-y="27"
     inkscape:window-maximized="1"
     inkscape:current-layer="Layer_1" /><path
     d="M 102.67383 0.00390625 C 94.931763 0.13071045 85.739688 3.4046094 76.070312 8.8496094 C 72.340312 8.0796094 68.469766 7.6699219 64.509766 7.6699219 C 33.239766 7.6699219 7.9003906 33.009297 7.9003906 64.279297 C 7.9003906 68.299297 8.319375 72.219531 9.109375 76.019531 C -0.520625 93.229531 -3.6190625 109.23937 5.2109375 118.85938 C 11.720938 125.94938 24.200156 123.15992 38.660156 114.66992 L 38.710938 114.69922 L 40.820312 113.38086 C 72.750313 94.510859 100.08062 68.140781 114.14062 37.050781 L 114.08984 36.949219 C 114.30984 36.529219 114.52047 36.130703 114.73047 35.720703 L 114.75977 35.650391 L 114.75977 35.660156 C 121.31977 22.900156 123.25039 12.010859 117.65039 5.8808594 C 113.83977 1.7114844 108.69543 -0.094719238 102.67383 0.00390625 z M 103.1543 5.859375 C 107.30366 5.8976733 110.76164 7.15625 113.25977 9.890625 C 116.97977 13.970625 115.47961 21.780391 110.59961 31.400391 C 104.08961 22.300391 94.950781 15.200703 84.300781 11.220703 C 91.343281 7.7782031 97.819402 5.8101343 103.1543 5.859375 z M 53.234375 17.080078 L 90.865234 56.207031 L 66.720703 56.207031 L 66.720703 91.544922 L 39.757812 91.544922 L 39.757812 56.214844 L 15.613281 56.207031 L 52.900391 17.425781 L 53.234375 17.080078 z M 118.61914 47.599609 L 118.60938 47.630859 C 103.11937 76.190859 79.199453 99.589609 47.689453 118.34961 C 52.999453 119.99961 58.649766 120.89062 64.509766 120.89062 C 95.779766 120.89062 121.11914 95.539297 121.11914 64.279297 C 121.11914 58.469297 120.23914 52.869609 118.61914 47.599609 z M 11.470703 84.119141 C 15.630703 95.219141 23.160078 104.65922 32.830078 111.19922 C 22.200078 117.10922 13.599375 119.15055 9.609375 114.81055 C 3.529375 108.18055 5.1807031 96.929141 11.470703 84.119141 z "
     id="path4382" /><g
     inkscape:groupmode="layer"
     id="layer7"
     inkscape:label="Layer 1" /><g
     inkscape:groupmode="layer"
     id="layer8"
     inkscape:label="Layer 2" /></svg>