<?xml version="1.0" encoding="UTF-8" standalone="no"?>
<svg
   xmlns:dc="http://purl.org/dc/elements/1.1/"
   xmlns:cc="http://creativecommons.org/ns#"
   xmlns:rdf="http://www.w3.org/1999/02/22-rdf-syntax-ns#"
   xmlns:svg="http://www.w3.org/2000/svg"
   xmlns="http://www.w3.org/2000/svg"
   xmlns:sodipodi="http://sodipodi.sourceforge.net/DTD/sodipodi-0.dtd"
   xmlns:inkscape="http://www.inkscape.org/namespaces/inkscape"
   id="Layer_1"
   data-name="Layer 1"
   viewBox="0 0 122.88 97.52"
   version="1.1"
   sodipodi:docname="civil_twilight_end.svg"
   inkscape:version="0.92.5 (2060ec1f9f, 2020-04-08)">
  <metadata
     id="metadata4193">
    <rdf:RDF>
      <cc:Work
         rdf:about="">
        <dc:format>image/svg+xml</dc:format>
        <dc:type
           rdf:resource="http://purl.org/dc/dcmitype/StillImage" />
        <dc:title>eye-scanning</dc:title>
      </cc:Work>
    </rdf:RDF>
  </metadata>
  <sodipodi:namedview
     pagecolor="#ffffff"
     bordercolor="#666666"
     borderopacity="1"
     objecttolerance="10"
     gridtolerance="10"
     guidetolerance="10"
     inkscape:pageopacity="0"
     inkscape:pageshadow="2"
     inkscape:window-width="1848"
     inkscape:window-height="1016"
     id="namedview4191"
     showgrid="false"
     inkscape:zoom="6.8448403"
     inkscape:cx="87.393594"
     inkscape:cy="38.200237"
     inkscape:window-x="72"
     inkscape:window-y="27"
     inkscape:window-maximized="1"
     inkscape:current-layer="layer5" />
  <defs
     id="defs4184">
    <style
       id="style4182">.cls-1{fill-rule:evenodd;}</style>
  </defs>
  <title
     id="title4186">eye-scanning</title>
  <g
     inkscape:groupmode="layer"
     id="layer5"
     inkscape:label="Layer 1">
    <path
       style="fill-rule:evenodd"
       d="M 59.09375 16.207031 C 41.54375 16.577031 24.523594 23.576172 10.183594 36.576172 C 6.9118244 39.567918 3.8539041 42.7867 1.0332031 46.207031 C -0.17963389 47.480379 -0.27793362 49.448658 0.80273438 50.835938 C 5.6230334 56.881932 11.271304 62.219384 17.582031 66.6875 C 30.964999 76.182938 46.973462 81.273699 63.382812 81.255859 C 79.643343 81.300124 95.439534 75.833044 108.19336 65.746094 C 113.56607 61.433334 118.30314 56.383478 122.26367 50.746094 C 123.2723 49.380265 123.17555 47.492462 122.0332 46.236328 C 118.54816 42.392171 114.79162 38.802726 110.79297 35.496094 C 94.562974 22.106094 76.64375 15.837031 59.09375 16.207031 z M 59.183594 23.296875 C 75.033594 22.966875 91.361958 28.706797 106.25195 40.966797 C 109.22991 43.450656 112.0618 46.104331 114.73242 48.916016 C 111.52921 53.092736 107.83611 56.869765 103.73242 60.166016 C 92.242537 69.257069 78.014701 74.191466 63.363281 74.166016 C 48.424391 74.168306 33.853292 69.524693 21.671875 60.876953 C 16.725169 57.35953 12.226922 53.252146 8.2734375 48.646484 C 10.379261 46.251305 12.615233 43.974179 14.972656 41.826172 L 14.921875 41.826172 C 27.961875 29.966172 43.333594 23.626875 59.183594 23.296875 z M 61.472656 28.646484 C 50.382776 28.646484 41.392578 37.636685 41.392578 48.726562 C 41.392578 66.617176 63.020882 75.572869 75.669922 62.923828 C 88.318962 50.274787 79.363266 28.646484 61.472656 28.646484 z M 55.814453 31.757812 L 66.759766 31.757812 L 66.759766 47.998047 L 76.558594 47.998047 L 61.285156 65.980469 L 61.150391 65.820312 L 46.015625 47.998047 L 55.814453 47.994141 L 55.814453 31.757812 z "
       id="path4188" />
  </g>
  <g
     inkscape:groupmode="layer"
     id="layer6"
     inkscape:label="Layer 2" />
</svg>
