<?xml version="1.0" encoding="UTF-8" standalone="no"?>
<svg
   xmlns:dc="http://purl.org/dc/elements/1.1/"
   xmlns:cc="http://creativecommons.org/ns#"
   xmlns:rdf="http://www.w3.org/1999/02/22-rdf-syntax-ns#"
   xmlns:svg="http://www.w3.org/2000/svg"
   xmlns="http://www.w3.org/2000/svg"
   xmlns:sodipodi="http://sodipodi.sourceforge.net/DTD/sodipodi-0.dtd"
   xmlns:inkscape="http://www.inkscape.org/namespaces/inkscape"
   version="1.1"
   id="Layer_1"
   x="0px"
   y="0px"
   viewBox="0 0 150 75.000002"
   xml:space="preserve"
   sodipodi:docname="date.svg"
   width="150"
   height="75"
   inkscape:version="0.92.5 (2060ec1f9f, 2020-04-08)"><metadata
     id="metadata4263"><rdf:RDF><cc:Work
         rdf:about=""><dc:format>image/svg+xml</dc:format><dc:type
           rdf:resource="http://purl.org/dc/dcmitype/StillImage" /><dc:title></dc:title></cc:Work></rdf:RDF></metadata><defs
     id="defs4261" /><sodipodi:namedview
     pagecolor="#ffffff"
     bordercolor="#666666"
     borderopacity="1"
     objecttolerance="10"
     gridtolerance="10"
     guidetolerance="10"
     inkscape:pageopacity="0"
     inkscape:pageshadow="2"
     inkscape:window-width="1848"
     inkscape:window-height="1016"
     id="namedview4259"
     showgrid="false"
     inkscape:zoom="6.8196616"
     inkscape:cx="23.970539"
     inkscape:cy="37.495002"
     inkscape:window-x="72"
     inkscape:window-y="27"
     inkscape:window-maximized="1"
     inkscape:current-layer="Layer_1"
     fit-margin-top="-2.7755576e-17"
     fit-margin-left="0"
     fit-margin-right="0"
     fit-margin-bottom="2.7755576e-17" /><style
     type="text/css"
     id="style4252">.st0{fill-rule:evenodd;clip-rule:evenodd;}</style><g
     id="g4256"
     transform="matrix(0.61040124,0,0,0.61040124,41.5,0)"><path
       class="st0"
       d="M 1.87,14.69 H 24.53 L 24.5,14.3 V 4.13 C 24.5,1.86 26.86,0 29.76,0 c 2.89,0 5.26,1.87 5.26,4.13 V 14.3 l -0.03,0.39 H 73.58 L 73.55,14.3 V 4.13 C 73.55,1.86 75.91,0 78.8,0 c 2.89,0 5.26,1.87 5.26,4.13 V 14.3 l -0.03,0.39 h 24.11 c 1.03,0 1.87,0.84 1.87,1.87 v 19.46 c 0,1.03 -0.84,1.87 -1.87,1.87 H 1.87 C 0.84,37.88 0,37.04 0,36.01 V 16.55 c 0,-1.03 0.84,-1.86 1.87,-1.86 z m -1.4,27.5 h 109.08 c 0.26,0 0.46,0.21 0.46,0.46 v 0 79.76 c 0,0.25 -0.21,0.46 -0.46,0.46 H 0.47 C 0.22,122.87 0,122.66 0,122.41 V 42.66 C 0,42.4 0.21,42.19 0.47,42.19 Z m 96.8,10.57 h -13.7 c -0.83,0 -1.5,0.63 -1.5,1.4 V 66.9 c 0,0.77 0.67,1.4 1.5,1.4 h 13.71 c 0.83,0 1.51,-0.63 1.51,-1.4 V 54.16 c -0.01,-0.77 -0.69,-1.4 -1.52,-1.4 z M 12.24,74.93 h 13.7 c 0.83,0 1.51,0.63 1.51,1.4 v 12.74 c 0,0.77 -0.68,1.4 -1.51,1.4 H 12.71 c -0.83,0 -1.5,-0.63 -1.5,-1.4 v -13.2 c 0,-0.77 0.68,-1.4 1.5,-1.4 z m 0,22.18 h 13.7 c 0.83,0 1.51,0.63 1.51,1.4 v 12.74 c 0,0.77 -0.68,1.4 -1.51,1.4 H 12.7 c -0.83,0 -1.5,-0.63 -1.5,-1.4 V 98.51 c 0,-0.77 0.68,-1.4 1.5,-1.4 z m 0,-44.35 h 13.7 c 0.83,0 1.51,0.63 1.51,1.4 V 66.9 c 0,0.77 -0.68,1.4 -1.51,1.4 H 12.7 c -0.83,0 -1.5,-0.63 -1.5,-1.4 V 54.16 c 0,-0.77 0.68,-1.4 1.5,-1.4 z m 23.78,0 h 13.71 c 0.83,0 1.5,0.63 1.5,1.4 V 66.9 c 0,0.77 -0.68,1.4 -1.5,1.4 H 36.02 c -0.83,0 -1.51,-0.63 -1.51,-1.4 V 54.16 c 0,-0.77 0.68,-1.4 1.51,-1.4 z m 0,22.17 h 13.71 c 0.83,0 1.5,0.63 1.5,1.4 v 12.74 c 0,0.77 -0.68,1.4 -1.5,1.4 H 36.02 c -0.83,0 -1.51,-0.63 -1.51,-1.4 v -13.2 c 0,-0.77 0.68,-1.4 1.51,-1.4 z m 0,22.18 h 13.71 c 0.83,0 1.5,0.63 1.5,1.4 v 12.74 c 0,0.77 -0.68,1.4 -1.5,1.4 H 36.02 c -0.83,0 -1.51,-0.63 -1.51,-1.4 V 98.51 c 0,-0.77 0.68,-1.4 1.51,-1.4 z M 59.79,52.76 H 73.5 c 0.83,0 1.51,0.63 1.51,1.4 V 66.9 c 0,0.77 -0.68,1.4 -1.51,1.4 H 59.79 c -0.83,0 -1.51,-0.63 -1.51,-1.4 V 54.16 c 0.01,-0.77 0.68,-1.4 1.51,-1.4 z m 0,22.17 H 73.5 c 0.83,0 1.51,0.63 1.51,1.4 v 12.74 c 0,0.77 -0.68,1.4 -1.51,1.4 H 59.79 c -0.83,0 -1.51,-0.63 -1.51,-1.4 v -13.2 c 0,-0.77 0.68,-1.4 1.51,-1.4 z m 37.48,0 h -13.7 c -0.83,0 -1.5,0.63 -1.5,1.4 v 12.74 c 0,0.77 0.67,1.4 1.5,1.4 h 13.71 c 0.83,0 1.51,-0.63 1.51,-1.4 V 75.86 c 0,-0.77 -0.68,-1.4 -1.51,-1.4 z m 0,22.18 h -13.7 c -0.83,0 -1.5,0.63 -1.5,1.4 v 12.74 c 0,0.77 0.67,1.4 1.5,1.4 h 13.71 c 0.83,0 1.51,-0.63 1.51,-1.4 V 98.04 c 0,-0.77 -0.68,-1.4 -1.51,-1.4 z m -37.48,0 H 73.5 c 0.83,0 1.51,0.63 1.51,1.4 v 12.74 c 0,0.77 -0.68,1.4 -1.51,1.4 H 59.79 c -0.83,0 -1.51,-0.63 -1.51,-1.4 V 98.51 c 0.01,-0.77 0.68,-1.4 1.51,-1.4 z M 7.01,47.71 h 96.92 c 0.52,0 0.94,0.44 0.94,0.94 v 67.77 c 0,0.5 -0.44,0.94 -0.94,0.94 H 6.08 c -0.5,0 -0.94,-0.42 -0.94,-0.94 V 49.58 c 0,-1.03 0.84,-1.87 1.87,-1.87 z M 78.8,29.4 c 2.89,0 5.26,-1.87 5.26,-4.13 V 15.11 L 84.03,14.7 H 73.58 l -0.03,0.41 v 10.16 c 0,2.27 2.36,4.13 5.25,4.13 z m -49.04,0 c 2.89,0 5.26,-1.87 5.26,-4.13 V 15.11 L 34.99,14.7 H 24.53 l -0.03,0.41 v 10.16 c 0,2.27 2.36,4.13 5.26,4.13 z"
       id="path4254"
       inkscape:connector-curvature="0"
       style="clip-rule:evenodd;fill-rule:evenodd" /></g></svg>