<?xml version="1.0" encoding="UTF-8" standalone="no"?>
<svg
   xmlns:dc="http://purl.org/dc/elements/1.1/"
   xmlns:cc="http://creativecommons.org/ns#"
   xmlns:rdf="http://www.w3.org/1999/02/22-rdf-syntax-ns#"
   xmlns:svg="http://www.w3.org/2000/svg"
   xmlns="http://www.w3.org/2000/svg"
   xmlns:sodipodi="http://sodipodi.sourceforge.net/DTD/sodipodi-0.dtd"
   xmlns:inkscape="http://www.inkscape.org/namespaces/inkscape"
   version="1.1"
   id="Layer_1"
   x="0px"
   y="0px"
   width="150"
   height="75"
   viewBox="0 0 150 75.000002"
   enable-background="new 0 0 105.765 122.88"
   xml:space="preserve"
   sodipodi:docname="day_length.svg"
   inkscape:version="0.92.5 (2060ec1f9f, 2020-04-08)"><metadata
     id="metadata4319"><rdf:RDF><cc:Work
         rdf:about=""><dc:format>image/svg+xml</dc:format><dc:type
           rdf:resource="http://purl.org/dc/dcmitype/StillImage" /><dc:title></dc:title></cc:Work></rdf:RDF></metadata><defs
     id="defs4317" /><sodipodi:namedview
     pagecolor="#ffffff"
     bordercolor="#666666"
     borderopacity="1"
     objecttolerance="10"
     gridtolerance="10"
     guidetolerance="10"
     inkscape:pageopacity="0"
     inkscape:pageshadow="2"
     inkscape:window-width="1848"
     inkscape:window-height="1016"
     id="namedview4315"
     showgrid="false"
     fit-margin-top="-2.7755576e-17"
     fit-margin-left="0"
     fit-margin-right="0"
     fit-margin-bottom="2.7755576e-17"
     inkscape:zoom="3.4098308"
     inkscape:cx="57.64599"
     inkscape:cy="9.4658977"
     inkscape:window-x="72"
     inkscape:window-y="27"
     inkscape:window-maximized="1"
     inkscape:current-layer="Layer_1" /><g
     id="g4312"
     transform="matrix(0.6103615,0,0,0.6103615,43.5,0)"><path
       d="M 82.872,90.81 C 79.889,82.65 75.165,76.635 69.589,72.75 65.817,70.121 61.675,68.466 57.456,67.78 53.22,67.094 48.873,67.372 44.709,68.608 35.573,71.323 27.33,78.716 22.903,90.81 Z M 20.618,27.21 h 64.535 c 0.346,-2.922 1.154,-13.713 1.119,-16.995 H 19.497 c -0.035,3.283 0.773,14.073 1.121,16.995 z M 0.91,112.665 h 9.567 C 10.222,85.12 22.648,68.03 38.027,61.466 22.637,54.9 10.205,37.79 10.478,10.214 H 0.911 C 0.41,10.214 0.002,9.754 0.002,9.189 L 0,1.024 C 0,0.46 0.409,0 0.91,0 h 103.944 c 0.5,0 0.91,0.46 0.91,1.024 v 8.164 c 0,0.563 -0.41,1.024 -0.91,1.024 h -9.57 c 0.225,23.214 -8.581,39.038 -20.546,47.376 -2.188,1.522 -4.543,2.832 -6.994,3.873 2.446,1.049 4.81,2.354 6.992,3.88 11.955,8.332 20.756,24.139 20.546,47.321 l 9.572,10e-4 c 0.5,0 0.91,0.463 0.91,1.026 v 8.162 c 0,0.564 -0.41,1.027 -0.91,1.027 H 0.91 c -0.501,0 -0.909,-0.463 -0.909,-1.026 v -8.162 c 0,-0.562 0.409,-1.025 0.909,-1.025 z"
       id="path4310"
       inkscape:connector-curvature="0" /></g></svg>