<?xml version="1.0" encoding="UTF-8" standalone="no"?>
<svg
   xmlns:dc="http://purl.org/dc/elements/1.1/"
   xmlns:cc="http://creativecommons.org/ns#"
   xmlns:rdf="http://www.w3.org/1999/02/22-rdf-syntax-ns#"
   xmlns:svg="http://www.w3.org/2000/svg"
   xmlns="http://www.w3.org/2000/svg"
   xmlns:sodipodi="http://sodipodi.sourceforge.net/DTD/sodipodi-0.dtd"
   xmlns:inkscape="http://www.inkscape.org/namespaces/inkscape"
   version="1.1"
   id="Layer_1"
   x="0px"
   y="0px"
   viewBox="0 0 122.88 112.63"
   style="enable-background:new 0 0 122.88 112.63"
   xml:space="preserve"
   sodipodi:docname="nautical_twilight_end.svg"
   inkscape:version="0.92.5 (2060ec1f9f, 2020-04-08)"><metadata
     id="metadata4510"><rdf:RDF><cc:Work
         rdf:about=""><dc:format>image/svg+xml</dc:format><dc:type
           rdf:resource="http://purl.org/dc/dcmitype/StillImage" /><dc:title></dc:title></cc:Work></rdf:RDF></metadata><defs
     id="defs4508" /><sodipodi:namedview
     pagecolor="#ffffff"
     bordercolor="#666666"
     borderopacity="1"
     objecttolerance="10"
     gridtolerance="10"
     guidetolerance="10"
     inkscape:pageopacity="0"
     inkscape:pageshadow="2"
     inkscape:window-width="1848"
     inkscape:window-height="1016"
     id="namedview4506"
     showgrid="false"
     inkscape:zoom="2.0953565"
     inkscape:cx="3.6932627"
     inkscape:cy="56.314999"
     inkscape:window-x="72"
     inkscape:window-y="27"
     inkscape:window-maximized="1"
     inkscape:current-layer="Layer_1" /><path
     d="M 56.140625 0 L 56.140625 0.01953125 C 54.540625 0.02953125 53.089062 0.67070312 52.039062 1.7207031 C 50.989063 2.7707031 50.330078 4.2298437 50.330078 5.8398438 L 50.310547 5.8398438 L 50.310547 16.449219 L 43.570312 16.449219 L 43.570312 16.470703 L 43.560547 16.470703 C 42.340547 16.470703 41.250703 16.960234 40.470703 17.740234 L 40.480469 17.75 C 39.690469 18.54 39.199219 19.639609 39.199219 20.849609 L 39.179688 20.849609 L 39.179688 24.130859 L 35.580078 24.130859 C 34.490078 24.140859 33.489219 24.499609 32.699219 25.099609 C 32.539219 25.219609 32.380469 25.35 32.230469 25.5 C 31.380469 26.35 30.849609 27.539375 30.849609 28.859375 L 30.839844 28.859375 L 30.839844 47.75 L 30.849609 47.75 C 30.849609 48.62 31.09 49.440625 31.5 50.140625 L 21.599609 55.460938 L 33.429688 69.380859 L 33.429688 83.490234 C 31.479687 82.550234 29.689688 81.180312 27.929688 79.820312 C 24.029687 76.820312 20.249844 73.900937 14.589844 73.960938 C 9.5598438 74.020938 6.6509375 76.780781 3.4609375 79.800781 C 2.7509375 80.470781 2.0305469 81.149531 1.3105469 81.769531 C -0.25945312 83.109531 -0.43960938 85.469063 0.90039062 87.039062 C 2.2403906 88.609063 4.5999219 88.799219 6.1699219 87.449219 C 7.0499219 86.699219 7.839375 85.950703 8.609375 85.220703 C 10.679375 83.250703 12.580625 81.449687 14.640625 81.429688 C 17.730625 81.399688 20.499375 83.530234 23.359375 85.740234 C 27.479375 88.920234 31.739375 92.199141 38.359375 92.119141 C 44.149375 92.189141 48.129062 89.689453 51.789062 86.939453 L 69.949219 86.939453 C 73.449219 90.089453 77.670391 92.990156 84.900391 92.660156 C 93.450391 93.050156 97.800938 88.930703 101.71094 85.220703 C 103.78094 83.250703 105.68023 81.449687 107.74023 81.429688 C 110.83023 81.399687 111.64977 83.530234 114.50977 85.740234 C 115.33977 86.380234 116.18008 87.03 116.83008 87.5 L 116.92969 87.570312 C 118.60969 88.780312 120.95016 88.410469 122.16016 86.730469 C 123.38016 85.060469 123.00008 82.719766 121.33008 81.509766 L 121.23047 81.439453 C 120.36047 80.809453 119.71008 80.310312 119.08008 79.820312 C 115.18008 76.820312 113.34945 73.900937 107.68945 73.960938 C 102.65945 74.020938 99.750547 76.780781 96.560547 79.800781 C 94.980547 81.300781 93.299922 82.890938 91.169922 83.960938 L 91.169922 69.839844 L 105.06055 55.689453 L 91.439453 49.070312 C 91.559453 48.640312 91.630859 48.190469 91.630859 47.730469 L 91.650391 47.730469 L 91.650391 28.849609 L 91.630859 28.849609 C 91.620859 27.529609 91.1 26.35 90.25 25.5 L 90.240234 25.509766 C 89.380234 24.659766 88.200625 24.130859 86.890625 24.130859 L 83.289062 24.130859 L 83.289062 20.849609 L 83.279297 20.849609 L 83.279297 20.839844 C 83.279297 19.639844 82.789766 18.549531 82.009766 17.769531 C 81.219766 16.969531 80.120156 16.480469 78.910156 16.480469 L 78.910156 16.460938 L 72.169922 16.460938 L 72.169922 5.8300781 L 72.160156 5.8300781 C 72.150156 4.2300781 71.500938 2.7804688 70.460938 1.7304688 C 69.410937 0.68046875 67.949844 0.01953125 66.339844 0.01953125 L 66.339844 0 L 56.140625 0 z M 57.800781 7.5 L 64.679688 7.5 L 64.679688 20.210938 C 64.679688 22.280938 66.359688 23.960938 68.429688 23.960938 L 75.810547 23.960938 L 75.810547 27.859375 C 75.810547 29.929375 77.490547 31.609375 79.560547 31.609375 C 79.680547 31.609375 79.790391 31.609609 79.900391 31.599609 L 84.169922 31.599609 L 84.169922 44.990234 L 83.050781 44.990234 L 61 34.279297 L 41.080078 44.990234 L 38.330078 44.990234 L 38.330078 31.599609 L 42.929688 31.599609 C 44.989688 31.599609 46.660156 29.929141 46.660156 27.869141 L 46.669922 27.869141 L 46.669922 23.970703 L 54.050781 23.970703 C 56.120781 23.970703 57.800781 22.290703 57.800781 20.220703 L 57.800781 7.5 z M 54.138672 40.412109 L 68.707031 40.412109 L 68.707031 59.505859 L 81.751953 59.505859 L 61.419922 80.644531 L 61.240234 80.457031 L 41.095703 59.505859 L 54.138672 59.5 L 54.138672 40.412109 z M 14.599609 93.900391 C 9.5696094 93.960391 6.6607031 96.720234 3.4707031 99.740234 C 2.7607031 100.41023 2.0403125 101.09094 1.3203125 101.71094 C -0.2496875 103.05094 -0.42984375 105.41047 0.91015625 106.98047 C 2.2501562 108.55047 4.6096875 108.73063 6.1796875 107.39062 C 7.0596875 106.64062 7.8491406 105.89016 8.6191406 105.16016 C 10.689141 103.19016 12.590391 101.38914 14.650391 101.36914 C 17.740391 101.33914 20.509141 103.46969 23.369141 105.67969 C 27.489141 108.85969 31.749141 112.14055 38.369141 112.06055 C 44.989141 112.14055 49.249141 108.85969 53.369141 105.67969 C 56.229141 103.47969 59.009844 101.33914 62.089844 101.36914 C 64.149844 101.39914 66.039141 103.19016 68.119141 105.16016 C 72.039141 108.87016 76.389687 112.98961 84.929688 112.59961 C 93.479688 112.98961 97.830234 108.87016 101.74023 105.16016 C 103.81023 103.19016 105.70953 101.38914 107.76953 101.36914 C 110.85953 101.33914 111.67906 103.46969 114.53906 105.67969 C 115.36906 106.31969 116.20937 106.96945 116.85938 107.43945 L 116.86914 107.42969 L 116.88086 107.43945 L 116.98047 107.50977 C 118.65047 108.70977 120.97945 108.33016 122.18945 106.66016 C 123.38945 104.99016 123.00984 102.64922 121.33984 101.44922 L 121.25 101.38086 C 120.38 100.75086 119.72961 100.24977 119.09961 99.759766 C 115.19961 96.749766 113.37094 93.840391 107.71094 93.900391 C 102.68094 93.960391 99.770078 96.720234 96.580078 99.740234 C 93.740078 102.43023 90.589141 105.42086 85.119141 105.13086 L 84.919922 105.13086 L 84.720703 105.13086 C 79.240703 105.41086 76.089766 102.43023 73.259766 99.740234 C 70.069766 96.710234 67.160859 93.950391 62.130859 93.900391 C 56.470859 93.830391 52.689062 96.749766 48.789062 99.759766 C 45.669062 102.16977 42.450391 104.64984 38.400391 104.58984 L 38.359375 104.58984 L 38.330078 104.58984 C 34.280078 104.64984 31.059453 102.15977 27.939453 99.759766 C 24.039453 96.749766 20.259609 93.840391 14.599609 93.900391 z "
     id="path4501" /><g
     inkscape:groupmode="layer"
     id="layer9"
     inkscape:label="Layer 1" /><g
     inkscape:groupmode="layer"
     id="layer10"
     inkscape:label="Layer 2" /></svg>