<?xml version="1.0" encoding="UTF-8" standalone="no"?>
<svg
   xmlns:dc="http://purl.org/dc/elements/1.1/"
   xmlns:cc="http://creativecommons.org/ns#"
   xmlns:rdf="http://www.w3.org/1999/02/22-rdf-syntax-ns#"
   xmlns:svg="http://www.w3.org/2000/svg"
   xmlns="http://www.w3.org/2000/svg"
   xmlns:sodipodi="http://sodipodi.sourceforge.net/DTD/sodipodi-0.dtd"
   xmlns:inkscape="http://www.inkscape.org/namespaces/inkscape"
   id="Layer_1"
   data-name="Layer 1"
   viewBox="0 0 150 75.000002"
   version="1.1"
   sodipodi:docname="solar_noon.svg"
   width="150"
   height="75"
   inkscape:version="0.92.5 (2060ec1f9f, 2020-04-08)">
  <metadata
     id="metadata4471">
    <rdf:RDF>
      <cc:Work
         rdf:about="">
        <dc:format>image/svg+xml</dc:format>
        <dc:type
           rdf:resource="http://purl.org/dc/dcmitype/StillImage" />
        <dc:title>sun-warm</dc:title>
      </cc:Work>
    </rdf:RDF>
  </metadata>
  <defs
     id="defs4469" />
  <sodipodi:namedview
     pagecolor="#ffffff"
     bordercolor="#666666"
     borderopacity="1"
     objecttolerance="10"
     gridtolerance="10"
     guidetolerance="10"
     inkscape:pageopacity="0"
     inkscape:pageshadow="2"
     inkscape:window-width="1848"
     inkscape:window-height="1016"
     id="namedview4467"
     showgrid="false"
     fit-margin-top="-2.7755576e-17"
     fit-margin-left="0"
     fit-margin-right="0"
     fit-margin-bottom="2.7755576e-17"
     inkscape:zoom="3.4098308"
     inkscape:cx="27.615729"
     inkscape:cy="11.283872"
     inkscape:window-x="72"
     inkscape:window-y="27"
     inkscape:window-maximized="1"
     inkscape:current-layer="Layer_1" />
  <title
     id="title4462">sun-warm</title>
  <path
     d="m 55.849423,8.1305082 a 2.39192,2.39192 0 1 1 4.138691,-2.398006 l 3.079673,5.3133488 A 2.4034396,2.4034396 0 1 1 58.92301,13.480375 Z M 74.99087,16.042712 A 21.442072,21.442072 0 1 1 59.817698,22.317698 21.381208,21.381208 0 0 1 74.984783,16.036625 Z M 73.079768,2.5250162 a 2.4040926,2.4040926 0 1 1 4.802099,0 v 6.122829 a 2.4040926,2.4040926 0 1 1 -4.802099,0 z m 17.759854,3.71265 a 2.39192,2.39192 0 1 1 4.144777,2.373661 L 91.904726,13.942935 A 2.39192,2.39192 0 1 1 87.759949,11.557101 L 90.839622,6.2315792 Z M 104.33906,18.349423 a 2.3942443,2.3942443 0 1 1 2.39801,4.144778 l -5.32553,3.079673 a 2.4034398,2.4034398 0 1 1 -2.434521,-4.144778 z m 5.63592,17.236431 a 2.4040926,2.4040926 0 1 1 0,4.802099 h -6.15326 a 2.4040926,2.4040926 0 1 1 0,-4.802099 z m -3.74308,17.759854 a 2.39192,2.39192 0 1 1 -2.37975,4.144777 l -5.331604,-3.079673 a 2.39192,2.39192 0 1 1 2.367574,-4.150863 l 5.32552,3.079673 z m -12.105671,13.49335 a 2.3942438,2.3942438 0 1 1 -4.144777,2.398007 l -3.091846,-5.325522 a 2.4034398,2.4034398 0 0 1 4.144778,-2.434524 l 3.079673,5.331608 z m -17.236431,5.635924 a 2.4040926,2.4040926 0 1 1 -4.802099,0 v -6.15326 a 2.4040926,2.4040926 0 1 1 4.802099,0 z M 59.129945,68.731901 a 2.39192,2.39192 0 0 1 -4.144778,-2.379748 l 3.079673,-5.331607 a 2.39192,2.39192 0 1 1 4.144778,2.367574 l -3.079673,5.325522 z M 45.630508,56.626229 a 2.3942438,2.3942438 0 1 1 -2.398006,-4.144777 l 5.313349,-3.091846 a 2.4086895,2.4086895 0 1 1 2.434524,4.15695 l -5.331608,3.079673 z M 40.025016,39.389798 a 2.4040926,2.4040926 0 1 1 0,-4.802099 h 6.122829 a 2.4040926,2.4040926 0 1 1 0,4.802099 z m 3.71265,-17.759853 a 2.39192,2.39192 0 1 1 2.373661,-4.144778 l 5.331608,3.079673 a 2.39192,2.39192 0 1 1 -2.385834,4.144778 z"
     id="path4464"
     inkscape:connector-curvature="0"
     style="stroke-width:0.60863101" />
</svg>
