<?xml version="1.0" encoding="UTF-8" standalone="no"?>
<svg
   xmlns:dc="http://purl.org/dc/elements/1.1/"
   xmlns:cc="http://creativecommons.org/ns#"
   xmlns:rdf="http://www.w3.org/1999/02/22-rdf-syntax-ns#"
   xmlns:svg="http://www.w3.org/2000/svg"
   xmlns="http://www.w3.org/2000/svg"
   xmlns:sodipodi="http://sodipodi.sourceforge.net/DTD/sodipodi-0.dtd"
   xmlns:inkscape="http://www.inkscape.org/namespaces/inkscape"
   version="1.1"
   id="Layer_1"
   x="0px"
   y="0px"
   viewBox="0 0 122.88 70.41"
   style="enable-background:new 0 0 122.88 70.41"
   xml:space="preserve"
   sodipodi:docname="sunset.svg"
   inkscape:version="0.92.5 (2060ec1f9f, 2020-04-08)"><metadata
     id="metadata3787"><rdf:RDF><cc:Work
         rdf:about=""><dc:format>image/svg+xml</dc:format><dc:type
           rdf:resource="http://purl.org/dc/dcmitype/StillImage" /><dc:title></dc:title></cc:Work></rdf:RDF></metadata><defs
     id="defs3785" /><sodipodi:namedview
     pagecolor="#ffffff"
     bordercolor="#666666"
     borderopacity="1"
     objecttolerance="10"
     gridtolerance="10"
     guidetolerance="10"
     inkscape:pageopacity="0"
     inkscape:pageshadow="2"
     inkscape:window-width="1848"
     inkscape:window-height="1016"
     id="namedview3783"
     showgrid="false"
     inkscape:zoom="8.4157854"
     inkscape:cx="53.466406"
     inkscape:cy="41.462036"
     inkscape:window-x="72"
     inkscape:window-y="27"
     inkscape:window-maximized="1"
     inkscape:current-layer="layer2" /><g
     inkscape:groupmode="layer"
     id="layer2"
     inkscape:label="Layer 1"
     style="display:inline"><path
       d="M 61.373047 -0.0859375 C 59.813047 -0.0859375 58.542969 1.1841406 58.542969 2.7441406 L 58.542969 9.984375 C 58.542969 11.554375 59.813047 12.814453 61.373047 12.814453 C 62.933047 12.814453 64.203125 11.544375 64.203125 9.984375 L 64.203125 2.7441406 C 64.203125 1.1841406 62.933047 -0.0859375 61.373047 -0.0859375 z M 40.898438 5.1503906 C 40.357207 5.1125977 39.799219 5.2309375 39.292969 5.5234375 C 37.942969 6.3034375 37.483672 8.025 38.263672 9.375 L 41.882812 15.644531 C 42.662812 16.994531 44.382422 17.453828 45.732422 16.673828 C 47.082422 15.893828 47.543672 14.174219 46.763672 12.824219 L 43.142578 6.5546875 C 42.655078 5.7109375 41.800488 5.2133789 40.898438 5.1503906 z M 81.667969 5.7382812 C 80.766797 5.8037109 79.914844 6.3007812 79.433594 7.1445312 L 75.8125 13.414062 C 75.0425 14.764063 75.503516 16.483906 76.853516 17.253906 C 78.203516 18.023906 79.923359 17.564844 80.693359 16.214844 L 84.3125 9.9433594 C 85.0825 8.5933594 84.623437 6.8735156 83.273438 6.1035156 C 82.767187 5.8147656 82.208672 5.6990234 81.667969 5.7382812 z M 60.783203 19.035156 C 53.833203 19.035156 47.542422 21.993906 42.982422 26.753906 C 38.432422 31.523906 35.613281 38.114531 35.613281 45.394531 C 35.613281 47.334531 35.813359 49.224922 36.193359 51.044922 L 6.9628906 51.044922 C 4.8628906 51.044922 4.34375 52.204766 4.34375 53.634766 C 4.34375 55.064766 4.8628906 56.224609 6.9628906 56.224609 L 116.98242 56.224609 C 119.08242 56.224609 119.60352 55.064766 119.60352 53.634766 C 119.60352 52.204766 119.08242 51.044922 116.98242 51.044922 L 85.373047 51.044922 C 85.753047 49.224922 85.953125 47.334531 85.953125 45.394531 C 85.953125 38.124531 83.133984 31.523906 78.583984 26.753906 C 74.023984 21.983906 67.733203 19.035156 60.783203 19.035156 z M 25.208984 20.019531 C 24.307813 20.084961 23.453906 20.580078 22.972656 21.423828 C 22.202656 22.773828 22.663672 24.493672 24.013672 25.263672 L 30.283203 28.884766 C 31.633203 29.654766 33.353047 29.19375 34.123047 27.84375 C 34.893047 26.49375 34.433984 24.773906 33.083984 24.003906 L 26.8125 20.384766 C 26.30625 20.096016 25.749688 19.980273 25.208984 20.019531 z M 96.929688 21.021484 C 96.388457 20.983691 95.830469 21.102031 95.324219 21.394531 L 89.052734 25.013672 C 87.702734 25.793672 87.243437 27.513281 88.023438 28.863281 C 88.803437 30.213281 90.523047 30.674531 91.873047 29.894531 L 98.142578 26.273438 C 99.492578 25.493437 99.953828 23.773828 99.173828 22.423828 C 98.686328 21.580078 97.831738 21.084473 96.929688 21.021484 z M 55.447266 22.134766 L 65.992188 22.134766 L 65.992188 35.955078 L 75.435547 35.955078 L 60.716797 51.257812 L 60.587891 51.123047 L 46.003906 35.955078 L 55.447266 35.953125 L 55.447266 22.134766 z M 19.613281 40.503906 C 18.053281 40.503906 16.783203 41.773984 16.783203 43.333984 C 16.783203 44.893984 18.053281 46.164062 19.613281 46.164062 L 26.853516 46.164062 C 28.413516 46.164063 29.683594 44.903984 29.683594 43.333984 C 29.683594 41.763984 28.413516 40.503906 26.853516 40.503906 L 19.613281 40.503906 z M 94.712891 41.673828 C 93.142891 41.673828 91.882812 42.933906 91.882812 44.503906 C 91.882813 46.073906 93.152891 47.333984 94.712891 47.333984 L 101.95312 47.333984 C 103.51313 47.333984 104.7832 46.063906 104.7832 44.503906 C 104.7832 42.943906 103.51313 41.673828 101.95312 41.673828 L 94.712891 41.673828 z M 2.4941406 65.144531 C 0.39414067 65.144531 -0.12695312 66.304375 -0.12695312 67.734375 C -0.12695312 69.164375 0.39414067 70.324219 2.4941406 70.324219 L 32.003906 70.324219 C 34.103906 70.324219 34.623047 69.164375 34.623047 67.734375 C 34.623047 66.304375 34.103906 65.144531 32.003906 65.144531 L 2.4941406 65.144531 z M 63.273438 65.144531 C 61.173438 65.144531 60.654297 66.304375 60.654297 67.734375 C 60.654297 69.164375 61.173437 70.324219 63.273438 70.324219 L 120.13281 70.324219 C 122.23281 70.324219 122.75391 69.164375 122.75391 67.734375 C 122.75391 66.304375 122.23281 65.144531 120.13281 65.144531 L 63.273438 65.144531 z "
       id="path3778" /></g><g
     inkscape:groupmode="layer"
     id="layer3"
     inkscape:label="Layer 2"
     style="display:inline" /></svg>