<?xml version="1.0" encoding="UTF-8" standalone="no"?>
<svg
   xmlns:dc="http://purl.org/dc/elements/1.1/"
   xmlns:cc="http://creativecommons.org/ns#"
   xmlns:rdf="http://www.w3.org/1999/02/22-rdf-syntax-ns#"
   xmlns:svg="http://www.w3.org/2000/svg"
   xmlns="http://www.w3.org/2000/svg"
   xmlns:sodipodi="http://sodipodi.sourceforge.net/DTD/sodipodi-0.dtd"
   xmlns:inkscape="http://www.inkscape.org/namespaces/inkscape"
   version="1.1"
   id="Layer_1"
   x="0px"
   y="0px"
   viewBox="0 0 150.006 75.002998"
   xml:space="preserve"
   sodipodi:docname="astronomical_twilight_begin.svg"
   inkscape:version="0.92.5 (2060ec1f9f, 2020-04-08)"
   width="150"
   height="75"><metadata
     id="metadata4391"><rdf:RDF><cc:Work
         rdf:about=""><dc:format>image/svg+xml</dc:format><dc:type
           rdf:resource="http://purl.org/dc/dcmitype/StillImage" /><dc:title></dc:title></cc:Work></rdf:RDF></metadata><defs
     id="defs4389" /><sodipodi:namedview
     pagecolor="#ffffff"
     bordercolor="#666666"
     borderopacity="1"
     objecttolerance="10"
     gridtolerance="10"
     guidetolerance="10"
     inkscape:pageopacity="0"
     inkscape:pageshadow="2"
     inkscape:window-width="1848"
     inkscape:window-height="1016"
     id="namedview4387"
     showgrid="false"
     inkscape:zoom="3.8411459"
     inkscape:cx="40.466553"
     inkscape:cy="28.900572"
     inkscape:window-x="72"
     inkscape:window-y="27"
     inkscape:window-maximized="1"
     inkscape:current-layer="Layer_1"
     fit-margin-top="-2.7755576e-17"
     fit-margin-left="0"
     fit-margin-right="0"
     fit-margin-bottom="2.7755576e-17"
     viewbox-width="121.13"
     viewbox-height="75"
     scale-x="1.00004" /><path
     d="M 100.66778,0.00230208 C 95.942766,0.07968908 90.332805,2.0777657 84.431545,5.4008714 82.155111,4.9309373 79.792901,4.680903 77.376097,4.680903 c -19.084209,0 -34.548934,15.464726 -34.548934,34.548934 0,2.453423 0.255708,4.845958 0.737848,7.165113 -5.877228,10.503333 -7.768216,20.274202 -2.379231,26.145333 3.973079,4.327056 11.589197,2.624637 20.414194,-2.556844 l 0.03099,0.01788 1.28736,-0.804601 C 82.405337,57.680283 99.085134,41.586517 107.66601,22.612163 l -0.031,-0.06198 c 0.13427,-0.256327 0.26282,-0.499543 0.39098,-0.749768 l 0.0179,-0.0429 v 0.006 c 4.00359,-7.787507 5.18186,-14.4332905 1.76416,-18.1744545 -2.32564,-2.5445861 -5.46525,-3.64691982 -9.14026,-3.58672792 z m 0.29323,3.57361732 c 2.53238,0.023375 4.64279,0.7914875 6.16741,2.4602883 2.27034,2.4900407 1.35478,7.2563733 -1.6235,13.1274993 C 101.53184,13.609939 95.954373,9.27697 89.454635,6.8479597 93.752701,4.746988 97.705104,3.5458668 100.96101,3.5759194 Z M 70.49468,10.42396 93.460947,34.303299 H 78.725441 v 21.56686 H 62.269878 V 34.308068 l -14.735505,-0.0048 22.756475,-23.668357 z m 39.90459,18.626194 -0.006,0.01908 c -9.45362,17.43028 -24.05204,31.710633 -43.282722,43.159936 3.240715,1.007002 6.689123,1.550789 10.265505,1.550789 19.084209,0 34.548937,-15.472014 34.548937,-34.55012 0,-3.545866 -0.53707,-6.96338 -1.52576,-10.179683 z M 45.006141,51.338175 c 2.538864,6.774376 7.134072,12.535692 13.035713,16.527081 -6.487533,3.606897 -11.736576,4.852729 -14.171691,2.20401 -3.710649,-4.046316 -2.702836,-10.913095 1.135978,-18.731091 z"
     id="path4382"
     inkscape:connector-curvature="0"
     style="stroke-width:0.61030406" /><g
     inkscape:groupmode="layer"
     id="layer7"
     inkscape:label="Layer 1"
     transform="translate(-49.095509,-23.945866)" /><g
     inkscape:groupmode="layer"
     id="layer8"
     inkscape:label="Layer 2"
     transform="translate(-49.095509,-23.945866)" /></svg>