<?xml version="1.0" encoding="UTF-8" standalone="no"?>
<svg
   xmlns:dc="http://purl.org/dc/elements/1.1/"
   xmlns:cc="http://creativecommons.org/ns#"
   xmlns:rdf="http://www.w3.org/1999/02/22-rdf-syntax-ns#"
   xmlns:svg="http://www.w3.org/2000/svg"
   xmlns="http://www.w3.org/2000/svg"
   xmlns:sodipodi="http://sodipodi.sourceforge.net/DTD/sodipodi-0.dtd"
   xmlns:inkscape="http://www.inkscape.org/namespaces/inkscape"
   version="1.1"
   id="Layer_1"
   x="0px"
   y="0px"
   viewBox="0 0 150 75.000009"
   xml:space="preserve"
   sodipodi:docname="nautical_twilight_begin.svg"
   inkscape:version="0.92.5 (2060ec1f9f, 2020-04-08)"
   width="150"
   height="75.000008"><metadata
     id="metadata4510"><rdf:RDF><cc:Work
         rdf:about=""><dc:format>image/svg+xml</dc:format><dc:type
           rdf:resource="http://purl.org/dc/dcmitype/StillImage" /><dc:title></dc:title></cc:Work></rdf:RDF></metadata><defs
     id="defs4508" /><sodipodi:namedview
     pagecolor="#ffffff"
     bordercolor="#666666"
     borderopacity="1"
     objecttolerance="10"
     gridtolerance="10"
     guidetolerance="10"
     inkscape:pageopacity="0"
     inkscape:pageshadow="2"
     inkscape:window-width="1848"
     inkscape:window-height="1016"
     id="namedview4506"
     showgrid="false"
     inkscape:zoom="2.0953565"
     inkscape:cx="-48.096064"
     inkscape:cy="37.497658"
     inkscape:window-x="72"
     inkscape:window-y="27"
     inkscape:window-maximized="1"
     inkscape:current-layer="Layer_1"
     fit-margin-top="-2.7755576e-17"
     fit-margin-left="0"
     fit-margin-right="0"
     fit-margin-bottom="2.7755576e-17" /><path
     d="m 72.383442,5e-6 v 0.01301 c -1.06548,0.0067 -2.032111,0.433632 -2.731333,1.132853 -0.69922,0.699221 -1.138054,1.670899 -1.138054,2.743038 h -0.01301 v 7.065047 h -4.48849 v 0.01431 h -0.0065 c -0.812429,0 -1.538183,0.325991 -2.057604,0.845413 l 0.0065,0.0065 c -0.526081,0.526081 -0.853216,1.258338 -0.853216,2.064107 h -0.01301 v 2.185066 h -2.39707 c -0.725858,0.0067 -1.392355,0.245559 -1.918436,0.645114 -0.106548,0.07991 -0.212263,0.166742 -0.312152,0.266631 -0.566036,0.566036 -0.919549,1.35807 -0.919549,2.237091 h -0.0065 v 12.579737 h 0.0065 c 0,0.579354 0.160082,1.125829 0.433111,1.591976 l -6.592916,3.542929 7.877944,9.269621 v 9.395784 c -1.298554,-0.625969 -2.490559,-1.538234 -3.662587,-2.443892 -2.597108,-1.997775 -5.114199,-3.941859 -8.883335,-3.901903 -3.349602,0.03995 -5.286715,1.877804 -7.411015,3.888897 -0.472807,0.446169 -0.952533,0.898166 -1.431998,1.311039 -1.045502,0.892339 -1.165472,2.46361 -0.273133,3.509112 0.892338,1.045503 2.463609,1.172132 3.509111,0.273134 0.586014,-0.499444 1.11173,-0.997899 1.624492,-1.484025 1.378465,-1.311872 2.644554,-2.511213 4.01636,-2.524531 2.057708,-0.01998 3.901488,1.398806 5.806033,2.8705 2.74361,2.117641 5.58045,4.301147 9.988873,4.247873 3.855705,0.04661 6.505877,-1.61799 8.943162,-3.449283 h 12.0933 c 2.330737,2.097663 5.141721,4.029313 9.956357,3.809558 5.693658,0.259711 8.590793,-2.483535 11.194563,-4.954117 1.37846,-1.311872 2.64325,-2.511213 4.01505,-2.524531 2.05771,-0.01998 2.60346,1.398806 4.50801,2.8705 0.55272,0.426192 1.1123,0.858887 1.54515,1.171872 l 0.0663,0.04682 c 1.11875,0.805769 2.67733,0.559482 3.4831,-0.559272 0.81243,-1.112094 0.55932,-2.670827 -0.55277,-3.476596 l -0.0663,-0.04682 c -0.57936,-0.419533 -1.01247,-0.751923 -1.432,-1.078226 -2.59711,-1.997775 -3.81617,-3.941859 -7.58531,-3.901903 -3.3496,0.03995 -5.28671,1.877804 -7.411008,3.888897 -1.052161,0.998887 -2.171331,2.057812 -3.589751,2.770352 v -9.403594 l 9.250099,-9.423097 -9.070631,-4.407851 c 0.07991,-0.286347 0.127462,-0.585909 0.127462,-0.892234 h 0.01301 V 19.211677 h -0.01301 c -0.0067,-0.879021 -0.353512,-1.664552 -0.919548,-2.230588 l -0.0065,0.0065 c -0.572699,-0.566033 -1.35823,-0.918245 -2.230591,-0.918245 h -2.398371 v -2.185066 h -0.0065 v -0.0065 c 0,-0.79911 -0.325991,-1.525176 -0.845413,-2.044598 -0.52608,-0.53274 -1.258338,-0.858418 -2.064107,-0.858418 v -0.01301 H 83.057752 V 3.882398 h -0.0065 C 83.044552,2.816918 82.612262,1.851587 81.919701,1.152366 81.220479,0.453145 80.247501,0.01301 79.175362,0.01301 V 0 Z m 1.105539,4.994436 h 4.580836 v 8.46453 c 0,1.378464 1.118753,2.497218 2.497218,2.497218 h 4.915097 v 2.596066 c 0,1.378465 1.118754,2.497218 2.497218,2.497218 0.07991,0 0.153059,1.56e-4 0.226311,-0.0065 h 2.843187 v 8.91715 H 90.303584 L 75.619421,22.827441 62.35425,29.96012 h -1.831294 v -8.91715 h 3.062995 c 1.371805,0 2.484211,-1.112406 2.484211,-2.484211 h 0.0065 v -2.596067 h 4.915097 c 1.378465,0 2.497218,-1.118754 2.497218,-2.497218 z M 75.899057,26.911433 89.438662,40.9895 H 80.751724 V 53.703203 H 71.050292 V 40.992102 l -8.685637,-0.0026 13.414744,-13.951906 z M 44.720246,62.530609 c -3.349602,0.03996 -5.286715,1.877804 -7.411015,3.888897 -0.472807,0.446167 -0.952533,0.899469 -1.431998,1.312342 -1.045502,0.892339 -1.165472,2.463609 -0.273133,3.509111 0.892338,1.045502 2.463609,1.165475 3.509111,0.273129 0.586014,-0.499443 1.11173,-0.999193 1.624492,-1.485319 1.378465,-1.311871 2.644555,-2.511215 4.01636,-2.524534 2.057709,-0.01998 3.901488,1.398808 5.806033,2.870502 2.743611,2.117641 5.580451,4.302448 9.988873,4.249174 4.408423,0.05327 7.245263,-2.131533 9.988873,-4.249174 1.904545,-1.465034 3.756284,-2.89048 5.807333,-2.870502 1.371805,0.01998 2.629935,1.212663 4.015059,2.524534 2.610425,2.470582 5.507562,5.213826 11.194561,4.954115 5.693657,0.259711 8.590795,-2.483533 11.194555,-4.954115 1.37847,-1.311871 2.64326,-2.511215 4.01506,-2.524534 2.05771,-0.01998 2.60346,1.398808 4.508,2.870502 0.55272,0.426192 1.1123,0.858884 1.54516,1.171868 l 0.007,-0.0065 0.008,0.0065 0.0663,0.04683 c 1.1121,0.79911 2.66302,0.546318 3.46879,-0.565776 0.79911,-1.112095 0.54631,-2.670985 -0.56578,-3.470095 l -0.0598,-0.04552 c -0.57935,-0.419533 -1.01246,-0.753221 -1.43199,-1.079527 -2.59711,-2.004434 -3.81486,-3.941859 -7.584,-3.901904 -3.3496,0.03996 -5.28802,1.877804 -7.412317,3.888897 -1.891226,1.791335 -3.989514,3.78287 -7.632123,3.589752 h -0.132664 -0.132665 c -3.649269,0.186459 -5.747556,-1.798417 -7.632123,-3.589752 -2.124301,-2.017752 -4.061414,-3.8556 -7.411016,-3.888897 -3.769135,-0.04661 -6.287527,1.89747 -8.884634,3.901904 -2.077686,1.604881 -4.221079,3.256422 -6.918075,3.216466 h -0.02731 -0.01951 c -2.697022,0.03995 -4.841717,-1.618248 -6.919402,-3.21647 -2.597107,-2.004434 -5.114199,-3.941859 -8.883335,-3.901904 z"
     id="path4501"
     inkscape:connector-curvature="0"
     style="stroke-width:0.66592485" /><g
     inkscape:groupmode="layer"
     id="layer9"
     inkscape:label="Layer 1"
     transform="translate(-20.529729,-18.812655)" /><g
     inkscape:groupmode="layer"
     id="layer10"
     inkscape:label="Layer 2"
     transform="translate(-20.529729,-18.812655)" /></svg>