<?xml version="1.0" encoding="UTF-8" standalone="no"?>
<svg
   xmlns:dc="http://purl.org/dc/elements/1.1/"
   xmlns:cc="http://creativecommons.org/ns#"
   xmlns:rdf="http://www.w3.org/1999/02/22-rdf-syntax-ns#"
   xmlns:svg="http://www.w3.org/2000/svg"
   xmlns="http://www.w3.org/2000/svg"
   xmlns:sodipodi="http://sodipodi.sourceforge.net/DTD/sodipodi-0.dtd"
   xmlns:inkscape="http://www.inkscape.org/namespaces/inkscape"
   version="1.1"
   id="Layer_1"
   x="0px"
   y="0px"
   viewBox="0 0 150 74.999997"
   xml:space="preserve"
   sodipodi:docname="sunrise.svg"
   inkscape:version="0.92.5 (2060ec1f9f, 2020-04-08)"
   width="150"
   height="75"><metadata
     id="metadata3787"><rdf:RDF><cc:Work
         rdf:about=""><dc:format>image/svg+xml</dc:format><dc:type
           rdf:resource="http://purl.org/dc/dcmitype/StillImage" /><dc:title></dc:title></cc:Work></rdf:RDF></metadata><defs
     id="defs3785" /><sodipodi:namedview
     pagecolor="#ffffff"
     bordercolor="#666666"
     borderopacity="1"
     objecttolerance="10"
     gridtolerance="10"
     guidetolerance="10"
     inkscape:pageopacity="0"
     inkscape:pageshadow="2"
     inkscape:window-width="1848"
     inkscape:window-height="1016"
     id="namedview3783"
     showgrid="false"
     inkscape:zoom="5.6568542"
     inkscape:cx="61.703583"
     inkscape:cy="21.363491"
     inkscape:window-x="72"
     inkscape:window-y="27"
     inkscape:window-maximized="1"
     inkscape:current-layer="layer2"
     scale-x="122.68"
     width="1"
     fit-margin-top="-2.7755576e-17"
     fit-margin-left="0"
     fit-margin-right="0"
     fit-margin-bottom="2.7755576e-17" /><g
     inkscape:groupmode="layer"
     id="layer2"
     inkscape:label="Layer 1"
     style="display:inline"
     transform="translate(0.6814898,4.4008725)"><path
       d="m 74.827525,-4.4008725 c -1.661692,0 -3.014563,1.3528709 -3.014563,3.0145629 v 7.7122059 c 0,1.6723439 1.352871,3.0145629 3.014563,3.0145629 1.661692,0 3.014563,-1.3528719 3.014563,-3.0145629 v -7.7122059 c 0,-1.661692 -1.352871,-3.0145629 -3.014563,-3.0145629 z M 53.018233,1.1767972 c -0.576512,-0.040253 -1.170874,0.085801 -1.710125,0.3973649 -1.438003,0.830846 -1.92724,2.6646319 -1.096394,4.1026357 l 3.855062,6.6782242 c 0.830846,1.438003 2.662553,1.92724 4.100555,1.096394 1.438003,-0.830846 1.929321,-2.662551 1.098475,-4.1005541 L 55.408663,2.6726364 C 54.889384,1.7738847 53.979085,1.2438912 53.018233,1.1767972 Z m 43.427184,0.626214 C 95.4855,1.8727064 94.578011,2.402179 94.065389,3.3009307 l -3.857143,6.6782244 c -0.820194,1.4380039 -0.329126,3.2699589 1.108877,4.0901529 1.438003,0.820194 3.269958,0.331207 4.090152,-1.106796 L 99.262338,6.2822066 C 100.08253,4.8442038 99.593544,3.012248 98.155542,2.1920538 97.61629,1.884481 97.021367,1.7611941 96.445417,1.8030112 Z M 74.199231,15.966673 c -7.403051,0 -14.103911,3.151622 -18.961165,8.221914 -4.846601,5.080943 -7.849514,12.101192 -7.849514,19.855755 0,2.066463 0.21312,4.080084 0.617891,6.018725 H 16.870521 c -2.236893,0 -2.789875,1.235451 -2.789875,2.758668 0,1.523218 0.552982,2.758668 2.789875,2.758668 H 134.06191 c 2.2369,0 2.79197,-1.23545 2.79197,-2.758668 0,-1.523217 -0.55507,-2.758668 -2.79197,-2.758668 h -33.66989 c 0.40477,-1.938641 0.61789,-3.952262 0.61789,-6.018725 0,-7.743911 -3.002913,-14.774812 -7.849514,-19.855755 -4.857254,-5.080944 -11.558114,-8.221914 -18.961165,-8.221914 z m -37.893204,1.048543 c -0.959916,0.0697 -1.869486,0.597088 -2.382108,1.49584 -0.820194,1.438002 -0.329126,3.269958 1.108877,4.090152 l 6.678225,3.857143 c 1.438002,0.820195 3.269958,0.329126 4.090152,-1.108877 0.820194,-1.438002 0.331206,-3.269958 -1.106796,-4.090152 L 38.014072,17.40426 c -0.539251,-0.307573 -1.132094,-0.430861 -1.708045,-0.389044 z m 76.395983,1.067268 c -0.57652,-0.04025 -1.17088,0.0858 -1.71013,0.397365 l -6.68031,3.855063 c -1.438,0.830846 -1.92724,2.662551 -1.09639,4.100554 0.83085,1.438003 2.66255,1.92932 4.10056,1.098474 l 6.67822,-3.857142 c 1.438,-0.830847 1.92932,-2.662552 1.09847,-4.100555 -0.51927,-0.898752 -1.42957,-1.426664 -2.39042,-1.493759 z M 74.128496,19.268338 89.806721,35.568614 H 79.747775 v 14.72122 H 68.515459 V 35.572775 l -10.058946,-0.0042 15.534674,-16.156727 z m -43.78294,19.566573 c -1.661692,0 -3.014563,1.352871 -3.014563,3.014563 0,1.661692 1.352871,3.014563 3.014563,3.014563 h 7.712206 c 1.661692,10e-7 3.014563,-1.342219 3.014563,-3.014563 0,-1.672344 -1.352871,-3.014563 -3.014563,-3.014563 z m 79.995144,1.246186 c -1.67234,0 -3.01456,1.342219 -3.01456,3.014563 0,1.672344 1.35287,3.014563 3.01456,3.014563 h 7.7122 c 1.6617,0 3.01456,-1.352871 3.01456,-3.014563 0,-1.661692 -1.35286,-3.014563 -3.01456,-3.014563 z M 12.110466,65.08179 c -2.2368933,0 -2.7919558,1.235451 -2.7919558,2.758669 0,1.523217 0.5550625,2.758669 2.7919558,2.758669 h 31.433425 c 2.236894,0 2.789876,-1.235452 2.789876,-2.758669 0,-1.523218 -0.552982,-2.758669 -2.789876,-2.758669 z m 64.741332,0 c -2.236894,0 -2.789876,1.235451 -2.789876,2.758669 0,1.523217 0.552981,2.758669 2.789876,2.758669 h 60.565872 c 2.23689,0 2.79196,-1.235452 2.79196,-2.758669 0,-1.523218 -0.55507,-2.758669 -2.79196,-2.758669 z"
       id="path3778"
       inkscape:connector-curvature="0"
       style="stroke-width:1.06518722" /></g><g
     inkscape:groupmode="layer"
     id="layer3"
     inkscape:label="Layer 2"
     style="display:inline"
     transform="translate(0.6814898,4.4008725)" /></svg>