<?xml version="1.0" encoding="UTF-8" standalone="no"?>
<svg
   xmlns:dc="http://purl.org/dc/elements/1.1/"
   xmlns:cc="http://creativecommons.org/ns#"
   xmlns:rdf="http://www.w3.org/1999/02/22-rdf-syntax-ns#"
   xmlns:svg="http://www.w3.org/2000/svg"
   xmlns="http://www.w3.org/2000/svg"
   xmlns:sodipodi="http://sodipodi.sourceforge.net/DTD/sodipodi-0.dtd"
   xmlns:inkscape="http://www.inkscape.org/namespaces/inkscape"
   version="1.1"
   id="Layer_1"
   x="0px"
   y="0px"
   viewBox="0 0 150 74.999996"
   xml:space="preserve"
   sodipodi:docname="sunset.svg"
   inkscape:version="0.92.5 (2060ec1f9f, 2020-04-08)"
   width="150"
   height="75"><metadata
     id="metadata3787"><rdf:RDF><cc:Work
         rdf:about=""><dc:format>image/svg+xml</dc:format><dc:type
           rdf:resource="http://purl.org/dc/dcmitype/StillImage" /><dc:title></dc:title></cc:Work></rdf:RDF></metadata><defs
     id="defs3785" /><sodipodi:namedview
     pagecolor="#ffffff"
     bordercolor="#666666"
     borderopacity="1"
     objecttolerance="10"
     gridtolerance="10"
     guidetolerance="10"
     inkscape:pageopacity="0"
     inkscape:pageshadow="2"
     inkscape:window-width="1848"
     inkscape:window-height="1016"
     id="namedview3783"
     showgrid="false"
     inkscape:zoom="8.4157854"
     inkscape:cx="49.815498"
     inkscape:cy="43.671173"
     inkscape:window-x="72"
     inkscape:window-y="27"
     inkscape:window-maximized="1"
     inkscape:current-layer="layer2"
     fit-margin-top="-2.7755576e-17"
     fit-margin-left="0"
     fit-margin-right="0"
     fit-margin-bottom="2.7755576e-17" /><g
     inkscape:groupmode="layer"
     id="layer2"
     inkscape:label="Layer 1"
     style="display:inline"
     transform="translate(4.132085,2.3808592)"><path
       d="m 71.37693,-2.3808592 c -1.661692,0 -3.014563,1.3528709 -3.014563,3.01456302 V 8.3459091 c 0,1.6723439 1.352871,3.0145629 3.014563,3.0145629 1.661692,0 3.014563,-1.352871 3.014563,-3.0145629 V 0.63370382 c 0,-1.66169212 -1.352871,-3.01456302 -3.014563,-3.01456302 z M 49.567638,3.1968106 c -0.576512,-0.040256 -1.170874,0.085797 -1.710125,0.3973648 -1.438003,0.830846 -1.92724,2.6646324 -1.096394,4.1026352 l 3.855062,6.6782244 c 0.830846,1.438003 2.662552,1.92724 4.100555,1.096394 1.438003,-0.830846 1.92932,-2.662552 1.098474,-4.100554 L 51.958067,4.6926497 C 51.438788,3.793898 50.52849,3.2639049 49.567638,3.1968106 Z m 43.427184,0.6262136 c -0.959917,0.069695 -1.867406,0.5991678 -2.380028,1.4979195 l -3.857143,6.6782243 c -0.820194,1.438004 -0.329126,3.269959 1.108877,4.090153 1.438003,0.820194 3.269958,0.331207 4.090152,-1.106796 L 95.811743,8.3022198 C 96.631937,6.864217 96.142949,5.0322614 94.704947,4.2120672 94.165695,3.9044944 93.570772,3.7812073 92.994822,3.8230242 Z M 70.748636,17.986685 c -7.403051,0 -14.103911,3.151623 -18.961165,8.221914 -4.846602,5.080944 -7.849515,12.101193 -7.849515,19.855756 0,2.066464 0.213121,4.080084 0.617892,6.018725 H 13.419926 c -2.236893,0 -2.789875,1.235451 -2.789875,2.758668 0,1.523218 0.552982,2.758668 2.789875,2.758668 H 130.61132 c 2.2369,0 2.79197,-1.23545 2.79197,-2.758668 0,-1.523217 -0.55507,-2.758668 -2.79197,-2.758668 H 96.941424 c 0.404771,-1.938641 0.617891,-3.952261 0.617891,-6.018725 0,-7.743911 -3.002913,-14.774812 -7.849514,-19.855756 -4.857254,-5.080943 -11.558114,-8.221914 -18.961165,-8.221914 z m -37.893204,1.048544 c -0.959916,0.06969 -1.869487,0.597088 -2.382108,1.495839 -0.820194,1.438003 -0.329126,3.269959 1.108877,4.090153 l 6.678224,3.857143 c 1.438003,0.820195 3.269959,0.329126 4.090153,-1.108877 0.820194,-1.438002 0.331206,-3.269958 -1.106797,-4.090152 L 34.563477,19.424273 C 34.024226,19.1167 33.431383,18.993412 32.855432,19.035229 Z m 76.395978,1.067268 c -0.57651,-0.04026 -1.17087,0.0858 -1.71013,0.397365 l -6.6803,3.855062 c -1.438003,0.830846 -1.927241,2.662552 -1.096394,4.100555 0.830844,1.438003 2.662554,1.92932 4.100554,1.098474 l 6.67823,-3.857142 c 1.438,-0.830847 1.92932,-2.662553 1.09847,-4.100555 -0.51928,-0.898752 -1.42958,-1.426664 -2.39043,-1.493759 z M 65.064864,21.28835 H 76.29718 V 36.00957 H 86.356126 L 70.677901,52.309847 70.540592,52.166297 55.005917,36.00957 65.064864,36.00749 Z M 26.89496,40.854924 c -1.661692,0 -3.014563,1.352871 -3.014563,3.014563 0,1.661692 1.352871,3.014563 3.014563,3.014563 h 7.712206 c 1.661692,10e-7 3.014563,-1.342219 3.014563,-3.014563 0,-1.672344 -1.352871,-3.014563 -3.014563,-3.014563 z m 79.99515,1.246186 c -1.67235,0 -3.01457,1.342219 -3.01457,3.014563 0,1.672344 1.35287,3.014563 3.01457,3.014563 h 7.7122 c 1.6617,0 3.01456,-1.352871 3.01456,-3.014563 0,-1.661692 -1.35286,-3.014563 -3.01456,-3.014563 z M 8.6598705,67.101803 c -2.2368931,0 -2.7919555,1.235451 -2.7919555,2.758669 0,1.523218 0.5550624,2.758669 2.7919555,2.758669 H 40.093296 c 2.236893,0 2.789876,-1.235451 2.789876,-2.758669 0,-1.523218 -0.552983,-2.758669 -2.789876,-2.758669 z m 64.7413315,0 c -2.236893,0 -2.789875,1.235451 -2.789875,2.758669 0,1.523218 0.552981,2.758669 2.789875,2.758669 h 60.565878 c 2.23689,0 2.79196,-1.235451 2.79196,-2.758669 0,-1.523218 -0.55507,-2.758669 -2.79196,-2.758669 z"
       id="path3778"
       inkscape:connector-curvature="0"
       style="stroke-width:1.06518722" /></g><g
     inkscape:groupmode="layer"
     id="layer3"
     inkscape:label="Layer 2"
     style="display:inline"
     transform="translate(4.132085,2.3808592)" /></svg>